
<?xml version="1.0" standalone="no"?><!DOCTYPE svg PUBLIC "-//W3C//DTD SVG 1.1//EN" "http://www.w3.org/Graphics/SVG/1.1/DTD/svg11.dtd"><svg t="1682393752561" class="icon" viewBox="0 0 1024 1024" version="1.1" xmlns="http://www.w3.org/2000/svg" p-id="24121" xmlns:xlink="http://www.w3.org/1999/xlink" width="128" height="128"><path d="M897.28 85.333333h-750.933333c-28.16 0-51.2 23.04-51.2 51.2v750.933334c0 28.16 23.04 51.2 51.2 51.2h276.906666c18.773333 0 34.133333-15.36 34.133334-34.133334s-15.36-34.133333-34.133334-34.133333H163.413333V153.6h716.8v275.626667c0 18.773333 15.36 34.133333 34.133334 34.133333s34.133333-15.36 34.133333-34.133333V136.533333c0-28.16-22.613333-51.2-51.2-51.2z" fill="#4C4C4C" p-id="24122"></path><path d="M649.813333 315.733333h-324.266666c-18.773333 0-34.133333-15.36-34.133334-34.133333s15.36-34.133333 34.133334-34.133333h324.266666c18.773333 0 34.133333 15.36 34.133334 34.133333s-14.933333 34.133333-34.133334 34.133333zM564.48 452.266667h-238.933333c-18.773333 0-34.133333-15.36-34.133334-34.133334s15.36-34.133333 34.133334-34.133333h238.933333c18.773333 0 34.133333 15.36 34.133333 34.133333s-14.933333 34.133333-34.133333 34.133334zM479.146667 588.8h-153.6c-18.773333 0-34.133333-15.36-34.133334-34.133333s15.36-34.133333 34.133334-34.133334h153.6c18.773333 0 34.133333 15.36 34.133333 34.133334s-14.933333 34.133333-34.133333 34.133333zM724.48 544c-94.293333 0-170.666667 76.373333-170.666667 170.666667s76.373333 170.666667 170.666667 170.666666 170.666667-76.373333 170.666667-170.666666-76.373333-170.666667-170.666667-170.666667z m0 273.066667c-56.32 0-102.4-46.08-102.4-102.4s46.08-102.4 102.4-102.4 102.4 46.08 102.4 102.4-45.653333 102.4-102.4 102.4z" fill="#4C4C4C" p-id="24123"></path><path d="M938.666667 928.853333c-13.226667 13.226667-34.986667 13.226667-48.213334 0l-72.533333-72.533333c-13.226667-13.226667-13.226667-34.986667 0-48.213333 13.226667-13.226667 34.986667-13.226667 48.213333 0l72.533334 72.533333c13.226667 13.226667 13.226667 34.56 0 48.213333z" fill="#4C4C4C" p-id="24124"></path></svg>