<svg class="icon" viewBox="0 0 1024 1024" xmlns="http://www.w3.org/2000/svg" width="128" height="128"><path d="M897.28 85.333H146.347c-28.16 0-51.2 23.04-51.2 51.2v750.934c0 28.16 23.04 51.2 51.2 51.2h276.906c18.774 0 34.134-15.36 34.134-34.134s-15.36-34.133-34.134-34.133h-259.84V153.6h716.8v275.627c0 18.773 15.36 34.133 34.134 34.133S948.48 448 948.48 429.227V136.533c0-28.16-22.613-51.2-51.2-51.2z" fill="white"/><path d="M649.813 315.733H325.547c-18.774 0-34.134-15.36-34.134-34.133s15.36-34.133 34.134-34.133h324.266c18.774 0 34.134 15.36 34.134 34.133s-14.934 34.133-34.134 34.133zM564.48 452.267H325.547c-18.774 0-34.134-15.36-34.134-34.134S306.773 384 325.547 384H564.48c18.773 0 34.133 15.36 34.133 34.133s-14.933 34.134-34.133 34.134zM479.147 588.8h-153.6c-18.774 0-34.134-15.36-34.134-34.133s15.36-34.134 34.134-34.134h153.6c18.773 0 34.133 15.36 34.133 34.134S498.347 588.8 479.147 588.8zM724.48 544c-94.293 0-170.667 76.373-170.667 170.667s76.374 170.666 170.667 170.666 170.667-76.373 170.667-170.666S818.773 544 724.48 544zm0 273.067c-56.32 0-102.4-46.08-102.4-102.4s46.08-102.4 102.4-102.4 102.4 46.08 102.4 102.4-45.653 102.4-102.4 102.4z" fill="white"/><path d="M938.667 928.853c-13.227 13.227-34.987 13.227-48.214 0L817.92 856.32c-13.227-13.227-13.227-34.987 0-48.213 13.227-13.227 34.987-13.227 48.213 0l72.534 72.533c13.226 13.227 13.226 34.56 0 48.213z" fill="white"/></svg>